<svg width="9957" height="1680" viewBox="0 0 9957 1680" fill="none" xmlns="http://www.w3.org/2000/svg">
<path d="M1350 840C1350 1212.79 1047.79 1515 675 1515C302.208 1515 0 1212.79 0 840C0 467.208 302.208 165 675 165C1047.79 165 1350 467.208 1350 840Z" fill="white"/>
<path d="M1000 840L512.5 1121.46V558.542L1000 840Z" fill="#FF0000"/>
<path d="M1807.6 984.2V1330H1611.6V463.4H2132.4V632.8H1807.6V817.6H2100.2L2047 984.2H1807.6ZM2484.7 1335.6H2430.1C2358.23 1335.6 2305.96 1318.8 2273.3 1285.2C2241.56 1251.6 2225.7 1196.53 2225.7 1120V630H2414.7V1107.4C2415.63 1127 2417.5 1140.07 2420.3 1146.6C2424.03 1153.13 2431.5 1156.4 2442.7 1156.4H2484.7V1335.6ZM2320.9 338.8C2351.7 338.8 2377.36 349.533 2397.9 371C2419.36 391.533 2430.1 417.2 2430.1 448C2430.1 479.733 2419.36 506.333 2397.9 527.8C2377.36 548.333 2351.23 558.6 2319.5 558.6C2287.76 558.6 2261.63 548.333 2241.1 527.8C2220.56 507.267 2210.3 481.133 2210.3 449.4C2210.3 417.667 2220.56 391.533 2241.1 371C2262.56 349.533 2289.16 338.8 2320.9 338.8ZM2768.27 630V688.8C2812.14 641.2 2867.21 617.4 2933.47 617.4C3022.14 617.4 3089.81 644.467 3136.47 698.6C3183.14 752.733 3206.47 831.6 3206.47 935.2V1330H3017.47V949.2C3017.47 891.333 3009.07 850.267 2992.27 826C2976.41 801.733 2948.87 789.6 2909.67 789.6C2864.87 789.6 2833.14 802.2 2814.47 827.4C2795.81 852.6 2786.47 895.067 2786.47 954.8V1330H2597.47V630H2768.27ZM3759.95 372.4H3946.15V1330H3772.55V1275.4C3731.49 1320.2 3676.89 1342.6 3608.75 1342.6C3515.42 1342.6 3442.15 1310.4 3388.95 1246C3336.69 1180.67 3310.55 1090.6 3310.55 975.8C3310.55 863.8 3335.75 776.067 3386.15 712.6C3437.49 649.133 3507.95 617.4 3597.55 617.4C3660.09 617.4 3714.22 638.867 3759.95 681.8V372.4ZM3628.35 789.6C3584.49 789.6 3552.29 805 3531.75 835.8C3512.15 866.6 3502.35 916.067 3502.35 984.2C3502.35 1050.47 3512.15 1098.07 3531.75 1127C3552.29 1155.93 3585.42 1170.4 3631.15 1170.4C3676.89 1170.4 3709.55 1156.4 3729.15 1128.4C3749.69 1100.4 3759.95 1053.73 3759.95 988.4C3759.95 855.867 3716.09 789.6 3628.35 789.6ZM4506.28 463.4H4719.08L4465.68 1002.4L4464.28 1330H4268.28V1002.4L4013.47 463.4H4226.28L4366.28 784L4506.28 463.4ZM4988.77 617.4C5090.51 617.4 5169.37 649.133 5225.37 712.6C5281.37 776.067 5309.37 865.2 5309.37 980C5309.37 1093.87 5280.91 1183 5223.97 1247.4C5167.97 1310.87 5089.11 1342.6 4987.37 1342.6C4885.64 1342.6 4806.77 1310.4 4750.77 1246C4694.77 1181.6 4666.77 1091.53 4666.77 975.8C4666.77 863.8 4695.24 776.067 4752.17 712.6C4809.11 649.133 4887.97 617.4 4988.77 617.4ZM4988.77 789.6C4901.97 789.6 4858.57 855.4 4858.57 987C4858.57 1109.27 4901.97 1170.4 4988.77 1170.4C5074.64 1170.4 5117.57 1109.73 5117.57 988.4C5117.57 855.867 5074.64 789.6 4988.77 789.6ZM5416.38 630H5605.38V1036C5605.38 1082.67 5613.32 1116.73 5629.18 1138.2C5645.98 1158.73 5672.58 1169 5708.98 1169C5744.45 1169 5770.12 1158.73 5785.98 1138.2C5802.78 1116.73 5811.18 1082.67 5811.18 1036V630H6000.18V1036C6000.18 1135.87 5975.45 1211.93 5925.98 1264.2C5876.52 1316.47 5803.72 1342.6 5707.58 1342.6C5612.38 1342.6 5540.05 1316.47 5490.58 1264.2C5441.12 1211.93 5416.38 1135.87 5416.38 1036V630ZM6295.62 630V702.8C6336.68 653.333 6392.68 626.733 6463.62 623H6504.22V812H6463.62C6408.55 813.867 6369.82 827.867 6347.42 854C6325.95 879.2 6314.75 923.067 6313.82 985.6V1330H6124.82V630H6295.62ZM6581.33 1330V463.4H6770.33L7022.33 992.6L7272.93 463.4H7461.93V1330H7267.33V890.4L7082.53 1302H6960.73L6775.93 890.4V1330H6581.33ZM7898.15 617.4C7999.88 617.4 8078.75 649.133 8134.75 712.6C8190.75 776.067 8218.75 865.2 8218.75 980C8218.75 1093.87 8190.28 1183 8133.35 1247.4C8077.35 1310.87 7998.48 1342.6 7896.75 1342.6C7795.01 1342.6 7716.15 1310.4 7660.15 1246C7604.15 1181.6 7576.15 1091.53 7576.15 975.8C7576.15 863.8 7604.61 776.067 7661.55 712.6C7718.48 649.133 7797.35 617.4 7898.15 617.4ZM7898.15 789.6C7811.35 789.6 7767.95 855.4 7767.95 987C7767.95 1109.27 7811.35 1170.4 7898.15 1170.4C7984.01 1170.4 8026.95 1109.73 8026.95 988.4C8026.95 855.867 7984.01 789.6 7898.15 789.6ZM8236.72 630H8442.52L8571.32 1062.6L8700.12 630H8905.92L8665.12 1330H8477.52L8236.72 630ZM9234.5 1335.6H9179.9C9108.03 1335.6 9055.77 1318.8 9023.1 1285.2C8991.37 1251.6 8975.5 1196.53 8975.5 1120V630H9164.5V1107.4C9165.43 1127 9167.3 1140.07 9170.1 1146.6C9173.83 1153.13 9181.3 1156.4 9192.5 1156.4H9234.5V1335.6ZM9070.7 338.8C9101.5 338.8 9127.17 349.533 9147.7 371C9169.17 391.533 9179.9 417.2 9179.9 448C9179.9 479.733 9169.17 506.333 9147.7 527.8C9127.17 548.333 9101.03 558.6 9069.3 558.6C9037.57 558.6 9011.43 548.333 8990.9 527.8C8970.37 507.267 8960.1 481.133 8960.1 449.4C8960.1 417.667 8970.37 391.533 8990.9 371C9012.37 349.533 9038.97 338.8 9070.7 338.8ZM9895.04 1058.4H9498.84C9516.57 1135.87 9566.04 1174.6 9647.24 1174.6C9677.11 1174.6 9702.77 1170.4 9724.24 1162C9745.71 1152.67 9772.31 1135.4 9804.04 1110.2L9899.24 1237.6C9858.17 1275.87 9817.57 1302.93 9777.44 1318.8C9737.31 1334.67 9689.71 1342.6 9634.64 1342.6C9532.91 1342.6 9452.64 1310.87 9393.84 1247.4C9335.04 1183.93 9305.64 1097.6 9305.64 988.4C9305.64 876.4 9333.64 786.8 9389.64 719.6C9446.57 651.467 9521.71 617.4 9615.04 617.4C9724.24 617.4 9804.04 659.4 9854.44 743.4C9887.11 797.533 9903.44 870.333 9903.44 961.8C9903.44 983.267 9900.64 1015.47 9895.04 1058.4ZM9496.04 910H9720.04C9718.17 870.8 9707.91 840.467 9689.24 819C9671.51 796.6 9646.31 785.4 9613.64 785.4C9552.97 785.4 9513.77 826.933 9496.04 910Z" fill="white"/>
</svg>
